<svg width="347" height="275" viewBox="0 0 347 275" fill="none" xmlns="http://www.w3.org/2000/svg">
<path d="M83.6368 128.519C83.1234 132.057 81.5914 136.029 79.0249 140.417C78.3132 142.55 74.6526 154.142 74.4848 167.172C74.9012 152.745 79.2797 140.549 79.2797 140.549C82.3683 135.375 83.547 131.472 83.6368 128.519ZM144.526 42.9576C146.147 38.8654 148.437 35.1026 150.983 31.7387C148.601 31.8986 146.222 32.0916 143.845 32.3177C142.538 35.1182 141.435 37.7505 140.639 39.7346C141.209 40.5593 142.702 41.7755 144.526 42.9576ZM183.257 59.2152L183.247 59.2211L183.251 59.2481C183.251 59.2367 183.257 59.2263 183.257 59.2152ZM51.7984 77.9747C59.5703 67.5286 67.7755 62.9347 75.0409 61.2845C69.7388 61.8548 63.6223 64.0652 57.4635 69.6086L45.5783 84.6268C44.7624 86.2658 44.0553 87.9568 43.4615 89.6887L41.613 96.9353C40.3549 104.184 40.6527 112.14 42.4294 120.594C37.5381 91.74 51.7984 77.9747 51.7984 77.9747ZM184.723 57.6683C184.714 57.6846 184.703 57.6995 184.694 57.7158C184.786 57.67 184.872 57.6229 184.973 57.5785C184.893 57.6083 184.794 57.6385 184.723 57.6683Z" fill="#C7FFF6"/>
<path d="M203.095 33.5151C202.683 35.1386 201.754 36.5375 200.466 37.5304C200.086 38.0913 199.535 38.5534 198.789 38.7729C193.677 40.2768 188.289 43.262 188.289 43.262C188.27 43.2808 188.256 43.3009 188.237 43.3196C186.897 45.0097 186.115 46.923 185.672 48.7087C188.325 48.1398 191.532 47.7346 195.233 47.3917C203.326 46.6415 212.665 46.4123 217.513 46.343C220.828 46.275 224.156 47.3639 226.827 49.3556C235.912 56.1297 241.523 64.0562 244.63 69.513C245.832 71.6256 245.821 74.1363 244.6 76.2299C243.395 78.2954 241.158 79.5767 238.759 79.5767C238.726 79.5774 238.697 79.576 238.668 79.5767C224.861 79.5767 209.147 89.9175 206.322 91.8565C203.409 95.5389 202.39 97.6523 202.034 98.7062C202.357 98.7173 202.715 98.7062 203.029 98.6798C224.029 87.6925 242.89 87.8447 252.318 88.9291C256.572 89.4183 260.335 91.7955 262.642 95.4512C271.827 110.007 275.997 123.627 277.665 130.45C277.962 131.659 277.871 132.931 277.406 134.086C276.941 135.241 276.125 136.221 275.073 136.887C274.017 137.556 272.778 137.875 271.531 137.802C270.283 137.728 269.091 137.265 268.121 136.477C258.093 128.35 241.649 129.506 234.457 130.502C235.514 141.43 238.623 145.06 240.502 146.262C242.397 147.473 244.302 147.001 244.666 146.894C266.535 136.297 278.493 144.158 278.992 144.498C279.524 144.86 279.965 145.34 280.282 145.899C280.6 146.459 280.784 147.084 280.822 147.726C281.365 156.867 281.378 165.532 280.862 173.48C280.855 173.58 280.845 173.68 280.831 173.78L278.054 193.98C277.772 195.915 277.422 197.84 277.003 199.751C276.953 199.981 276.883 200.206 276.795 200.423L273.384 208.854C269.609 217.647 265.85 221.155 265.434 221.527C265.237 221.702 265.024 221.859 264.798 221.994C254.655 228.08 231.017 226.933 228.355 226.784C228.242 226.778 228.13 226.767 228.018 226.751C212.836 224.658 206.637 199.939 205.494 194.72C204.343 192.758 203.517 191.983 203.126 191.695C202.652 192.134 202.001 193.146 201.725 193.835C201.455 194.511 201.015 195.104 200.447 195.559C199.785 196.548 199.512 203.046 207.052 220.064C207.682 221.487 207.958 223.041 207.858 224.594C207.759 226.147 207.286 227.652 206.48 228.983C205.675 230.313 204.561 231.429 203.232 232.236C201.903 233.043 200.399 233.518 198.848 233.619C193.375 233.974 187.659 233.79 187.419 233.783C187.169 233.774 186.921 233.744 186.677 233.691C178.483 231.935 172.963 217.964 171.467 213.724C171.433 213.627 171.402 213.529 171.375 213.43C169.492 206.526 167.192 203.642 165.794 203.271C165.184 203.108 164.477 203.44 164.01 203.732C159.367 215.942 160.949 230.823 160.966 230.977C161.034 231.585 160.968 232.2 160.774 232.78C160.579 233.36 160.261 233.89 159.84 234.334C159.42 234.779 158.908 235.126 158.339 235.352C157.771 235.578 157.16 235.677 156.55 235.643C147.609 235.146 123.253 223.944 120.506 222.668C119.814 222.347 119.223 221.844 118.795 221.213C118.367 220.581 118.118 219.846 118.076 219.084C117.87 215.383 116.762 205.457 114.873 190.38L113.943 183.034C113.371 178.574 112.976 175.571 112.976 175.567C112.965 175.481 112.956 175.394 112.95 175.307L112.367 166.828C112.362 166.758 112.359 166.688 112.357 166.618C112.043 149.776 116.458 136.818 117.946 132.951C117.517 130.45 116.94 129.471 116.697 129.153C115.571 129.386 113.122 131.374 111.387 133.471C97.1133 162.366 100.723 192.609 102.948 204.308C103.441 206.897 102.452 209.511 100.366 211.129C98.2823 212.745 95.5068 213.055 93.1206 211.933C77.0021 204.355 68.8901 186.829 68.5524 186.086C68.4682 185.901 68.3976 185.709 68.341 185.513C61.9745 163.475 70.8391 138.289 71.2198 137.227C71.3113 136.973 71.4272 136.727 71.5658 136.495C74.905 130.884 76.1586 126.264 75.0048 123.821C74.3929 122.524 73.0655 121.882 72.1884 121.588C71.727 121.783 71.2758 122.002 70.8364 122.243C60.8374 129.563 59.2496 145.687 59.2486 155.15C59.2486 156.033 58.6942 156.631 58.0148 156.87C57.1922 158.149 55.9169 159.07 54.4443 159.448C51.7218 160.157 48.9678 158.986 47.5929 156.531C34.9515 133.964 30.1597 113.369 33.3509 95.3167C33.3696 95.2134 33.3915 95.1111 33.4171 95.0095L35.3464 87.4439C35.3735 87.3375 35.4047 87.2325 35.4397 87.1291C36.2346 84.7918 37.1866 82.5363 38.2696 80.4244C38.3951 80.18 38.5438 79.9487 38.7141 79.7338L51.0777 64.1114C51.2174 63.9345 51.372 63.7692 51.5381 63.617C65.1012 51.2145 79.8479 51.4718 89.2554 54.4182C89.4982 50.6773 90.102 46.9686 91.0585 43.3438C37.4244 61.3975 0.792847 97.6589 0.792847 139.456C0.792847 199.263 75.7817 247.746 168.285 247.746C260.789 247.746 335.777 199.263 335.777 139.456C335.777 87.3673 278.89 43.8746 203.095 33.5151Z" fill="#C7FFF6"/>
<path d="M100.826 40.317C99.3462 44.1558 98.2847 48.4321 97.8174 53.176C98.5971 48.3132 99.9876 43.9512 101.781 40.0469C101.462 40.136 101.143 40.2262 100.826 40.317ZM163.375 31.2163C163.097 31.2215 162.821 31.2309 162.543 31.2368C158.909 34.9421 155.266 39.52 152.946 44.6592C155.73 39.4087 159.64 34.8384 163.375 31.2163ZM150.043 51.9835C149.821 52.2196 149.572 52.4291 149.301 52.6075C149.623 52.7652 149.815 52.8533 149.815 52.8533C149.883 52.561 149.967 52.2733 150.043 51.9835Z" fill="#C7FFF6"/>
<path d="M140.613 39.7009C140.621 39.7117 140.632 39.7238 140.639 39.7346C141.435 37.7505 142.538 35.1182 143.845 32.3177C146.441 26.757 149.829 20.559 153.167 17.5738C153.83 16.9802 154.086 16.1603 154.009 15.3723C153.768 15.6774 153.51 15.9711 153.214 16.2359C148.461 20.4987 142.846 33.7401 140.613 39.7009Z" fill="#70BA11"/>
<path d="M102.766 65.1195L100.746 61.2502C106.305 73.1874 116.818 87.2349 129.953 101.97C132.317 67.904 168.376 33.564 179.799 23.4923C178.107 22.8859 176.512 22.473 175.026 22.2581C174.868 22.2588 174.706 22.2459 174.548 22.2512C174.548 22.2512 169.18 25.5872 163.376 31.2163C159.641 34.8384 155.73 39.4087 152.946 44.6591C152.16 46.4019 151.522 48.2071 151.092 50.0663C150.923 50.7992 150.546 51.4475 150.043 51.9834C149.967 52.2733 149.883 52.561 149.815 52.8536C149.815 52.8536 149.623 52.7652 149.301 52.6078C149.152 52.7066 149.012 52.8169 148.849 52.8966C148.289 53.172 147.674 53.3193 147.049 53.3278C146.424 53.3364 145.806 53.2059 145.238 52.9458C141.051 51.027 131.388 45.8177 132.079 38.9088C132.113 38.5658 132.189 38.2284 132.306 37.9041C133.023 35.9096 139.099 19.3567 145.99 11.5949C144.507 10.9757 143.098 10.4703 141.776 10.0723C132.079 14.774 115.408 28.0098 102.766 65.1195Z" fill="#70BA11"/>
<path d="M135.575 108.148C140.359 113.308 145.41 118.523 150.644 123.738L145.497 118.263C160.408 82.6594 209.69 63.5615 224.722 58.4639C223.792 57.6652 222.828 56.8737 221.796 56.1041C220.604 55.2152 219.116 54.7208 217.634 54.7589C199.293 55.0228 188.276 56.3443 184.973 57.5785C184.872 57.6232 184.786 57.67 184.694 57.7158C184.347 58.3274 183.854 58.8429 183.257 59.2152C183.257 59.2263 183.251 59.2367 183.251 59.2481L183.247 59.2211C182.668 59.5826 182.01 59.7972 181.329 59.8461C179.126 59.9969 177.177 58.4292 176.865 56.2434C176.796 55.7584 175.259 44.2774 183.184 36.3513C183.461 36.075 183.775 35.8385 184.117 35.6486C184.33 35.5307 188.832 33.0416 193.738 31.329C188.816 27.7193 184.181 25.1033 180.085 23.5921C126.9 75.5056 134.537 104.974 135.575 108.148ZM164.197 72.329C161.399 70.4056 160.525 81.5968 160.525 81.5968C160.7 98.7332 148.459 93.3125 148.459 93.3125C141.815 81.0723 161.924 65.6762 161.924 65.6762C166.82 63.7445 166.995 67.7827 166.995 67.7827C169.618 72.8536 164.197 72.329 164.197 72.329ZM171.166 66.1966C168.703 66.1966 166.707 64.1221 166.707 61.5629C166.707 59.0037 168.703 56.9292 171.166 56.9292C173.628 56.9292 175.625 59.0037 175.625 61.5629C175.625 64.1221 173.628 66.1966 171.166 66.1966ZM179.738 157.024C170.824 149.027 162.392 141.088 154.517 133.399L155.889 134.745C134.293 147.888 138.582 207.452 139.96 221.873C144.485 223.671 148.886 225.276 152.285 226.255C152.167 219.834 152.69 209.034 156.625 199.524C156.837 199.013 157.147 198.549 157.538 198.157C158.007 197.689 162.274 193.628 167.954 195.136C173.117 196.508 176.879 201.717 179.453 211.061C181.619 217.115 185.045 222.984 187.362 224.86C165.245 181.052 177.958 159.658 179.738 157.024ZM159.475 167.628C154.261 167.628 150.033 163.401 150.033 158.186C150.033 152.971 154.26 148.743 159.475 148.743C164.691 148.743 168.918 152.971 168.918 158.186C168.918 163.401 164.691 167.628 159.475 167.628Z" fill="#70BA11"/>
<path d="M148.039 127.048L151.912 130.845C138.574 117.708 125.653 104.155 113.167 90.2063C82.5479 105.462 85.5674 172.35 85.5674 172.35C81.0211 125.312 98.1575 101.706 98.1575 101.706C103.054 93.837 100.722 76.0513 100.722 76.0513L103.402 79.0976C100.98 76.2932 98.5809 73.47 96.2036 70.6282C59.9215 77.152 52.8731 116.017 51.9125 138.786C53.9731 128.122 58.9854 117.074 70.5871 113.206C71.1832 113.007 71.8164 112.944 72.4401 113.022C73.1657 113.113 79.6125 114.081 82.5454 120.08C83.7415 122.526 84.0968 125.348 83.6368 128.519C83.547 131.472 82.3683 135.374 79.2797 140.549C79.2797 140.549 74.9008 152.745 74.4848 167.172C74.4182 172.34 74.8998 177.734 76.335 182.854C77.2527 184.727 83.4007 196.645 94.1651 202.975C91.8382 188.758 89.4898 158.444 104.059 129.305C104.184 129.055 104.335 128.817 104.507 128.596C106.255 126.361 112.463 119.212 118.992 120.992C123.049 122.1 125.559 126.111 126.451 132.913C126.55 133.669 126.442 134.438 126.138 135.137C126.084 135.263 120.462 148.533 120.772 166.358L121.338 174.601C121.42 175.224 121.787 178.03 122.292 181.967L123.224 189.331C124.371 198.485 125.75 209.91 126.288 216.06C130.224 217.842 135.001 219.898 139.665 221.757C128.623 163.024 148.039 127.048 148.039 127.048ZM151.077 124.172C170.169 143.162 191.546 162.097 210.491 178.111C213.29 177.624 236.302 174.24 263.168 189.311C263.168 189.311 223.099 178.269 219.556 185.71C236.083 199.447 249.894 210.317 257.372 216.117C258.369 215.789 259.283 215.428 260.052 215.013C260.77 214.228 263.138 211.386 265.615 205.615L268.858 197.599C269.198 196.007 269.486 194.404 269.722 192.794L272.473 172.784C272.91 165.942 272.938 158.526 272.555 150.703C269.268 149.57 261.199 148.187 248.16 154.555C248.074 154.597 247.985 154.636 247.897 154.672C247.279 154.924 241.698 157.019 235.968 153.353C229.844 149.435 226.418 140.633 225.788 127.189C225.742 126.199 226.046 125.226 226.646 124.438C227.247 123.651 228.106 123.101 229.073 122.884C230.089 122.658 251.591 117.996 267.751 126.267C265.591 119.433 261.83 109.937 255.524 99.9431C254.584 98.4541 253.065 97.4876 251.357 97.291C242.801 96.3058 225.577 96.19 206.326 106.458C205.956 106.655 205.558 106.796 205.146 106.876C203.857 107.123 197.295 108.128 194.451 103.405C191.326 98.2142 195.847 91.4384 200.136 86.1148C200.371 85.8233 200.644 85.5644 200.947 85.3451C201.707 84.7956 218.824 72.5471 235.855 71.2672C233.672 67.8683 230.155 63.2335 225.158 58.8501C150.278 93.2841 151.029 123.159 151.077 124.172ZM188.741 42.7188C188.566 42.9132 188.398 43.1135 188.237 43.3192C188.256 43.3005 188.27 43.2804 188.289 43.2617C188.289 43.2617 193.677 40.2768 198.789 38.7725C199.535 38.5531 200.086 38.091 200.466 37.53C199.753 38.0802 198.941 38.5156 198.041 38.7812C194.251 39.8992 190.178 41.9609 188.741 42.7188Z" fill="#70BA11"/>
<path d="M58.7556 90.5145C66.4495 68.3072 91.6406 65.1195 91.6406 65.1195L92.509 66.163C91.9169 65.4395 91.3927 64.7957 90.9438 64.2407C89.6143 63.5133 83.3286 60.3932 75.0409 61.2842C67.7759 62.9344 59.5707 67.5282 51.7984 77.9744C51.7984 77.9744 37.5385 91.7396 42.4301 120.593C44.0557 128.328 46.9175 136.48 51.0084 144.907C51.0482 144.517 51.1013 144.117 51.1481 143.722C49.2874 110.202 58.7556 90.5145 58.7556 90.5145ZM141.365 9.9489C140.767 9.77643 140.164 9.623 139.557 9.48886C136.998 9.38416 134.638 9.85495 132.868 11.2892C132.868 11.2892 111.469 18.9487 101.781 40.0462C99.9876 43.9509 98.5971 48.3128 97.8174 53.1754C97.8056 53.295 97.7883 53.4101 97.7775 53.5304C98.1575 54.8242 98.5922 56.1422 99.123 57.5026C100.513 53.7293 113.377 20.7431 141.365 9.9489ZM187.871 225.214C187.979 225.278 188.088 225.342 188.19 225.383C189.651 225.418 194.129 225.49 198.302 225.22C198.861 225.183 199.155 224.83 199.28 224.623C199.407 224.415 199.584 223.988 199.356 223.474C189.176 200.494 191.207 193.015 194.333 189.763C195.356 187.675 197.982 183.456 202.603 183.163C206.516 182.917 210.069 185.607 213.155 191.161C213.364 191.538 213.514 191.944 213.6 192.366C214.898 198.707 220.506 217.011 229.019 218.39C234.638 218.69 248.328 218.749 256.505 216.383C230.936 199.907 206.839 180.902 185.312 161.969C172.154 178.776 184.201 215.241 187.871 225.214ZM58.9969 153.557C58.9969 154.783 58.6325 155.914 58.0144 156.871C58.6939 156.633 59.2479 156.034 59.2482 155.151C59.2493 145.688 60.8371 129.564 70.836 122.244C60.61 127.768 58.9983 143.955 58.9969 153.557Z" fill="#70BA11"/>
<path d="M51.5384 63.6191C51.3724 63.7713 51.2177 63.9366 51.078 64.1134L38.7144 79.7359C38.5442 79.9508 38.3954 80.182 38.2699 80.4264C37.1866 82.5384 36.2349 84.7936 35.44 87.1312C35.4046 87.2345 35.3738 87.3396 35.3467 87.446L33.4175 95.0116C33.3915 95.1132 33.37 95.2155 33.3513 95.3188C30.1601 113.371 34.9519 133.966 47.5932 156.533C48.9681 158.988 51.7222 160.159 54.4446 159.45C55.9171 159.071 57.1923 158.151 58.0151 156.872C58.6566 155.886 58.9979 154.734 58.9976 153.558C58.9986 143.956 60.6107 127.769 70.8363 122.245C71.2732 122.009 71.7197 121.785 72.1884 121.59C73.0655 121.884 74.3933 122.526 75.0048 123.823C76.1586 126.267 74.905 130.886 71.5658 136.497C71.4271 136.73 71.3116 136.974 71.2198 137.229C70.8395 138.291 61.9745 163.477 68.3409 185.515C68.3974 185.711 68.4685 185.903 68.5524 186.089C68.8901 186.831 77.002 204.357 93.1206 211.935C95.5068 213.057 98.2823 212.747 100.366 211.131C102.452 209.513 103.441 206.899 102.948 204.31C100.723 192.611 97.1133 162.368 111.387 133.473C113.121 131.377 115.57 129.388 116.697 129.155C116.94 129.473 117.517 130.452 117.946 132.953C116.458 136.821 112.043 149.779 112.357 166.62C112.359 166.69 112.362 166.76 112.367 166.83L112.95 175.31C112.956 175.397 112.965 175.483 112.976 175.569C112.977 175.573 113.371 178.576 113.943 183.036L114.873 190.382C116.762 205.459 117.87 215.385 118.076 219.087C118.118 219.848 118.366 220.584 118.794 221.215C119.223 221.846 119.814 222.349 120.506 222.67C123.253 223.946 147.609 235.148 156.55 235.645C157.16 235.679 157.771 235.58 158.339 235.354C158.908 235.128 159.42 234.781 159.84 234.337C160.261 233.892 160.579 233.362 160.774 232.782C160.968 232.202 161.034 231.587 160.966 230.979C160.949 230.826 159.367 215.945 164.01 203.735C164.477 203.442 165.184 203.11 165.794 203.273C167.192 203.644 169.492 206.528 171.375 213.433C171.402 213.531 171.433 213.629 171.467 213.726C172.963 217.966 178.482 231.937 186.677 233.694C186.921 233.746 187.169 233.776 187.418 233.785C187.659 233.792 193.374 233.976 198.847 233.621C200.399 233.52 201.903 233.045 203.232 232.238C204.561 231.431 205.675 230.315 206.48 228.985C207.286 227.654 207.759 226.149 207.858 224.596C207.958 223.043 207.681 221.49 207.052 220.067C199.512 203.048 199.785 196.55 200.447 195.561C201.015 195.106 201.455 194.513 201.725 193.837C202.001 193.148 202.652 192.137 203.125 191.697C203.517 191.985 204.343 192.759 205.494 194.722C206.637 199.941 212.836 224.659 228.018 226.753C228.13 226.769 228.242 226.78 228.355 226.786C231.017 226.935 254.655 228.083 264.798 221.996C265.024 221.861 265.237 221.704 265.434 221.529C265.85 221.157 269.609 217.65 273.384 208.856L276.795 200.425C276.883 200.208 276.953 199.983 277.003 199.753C277.421 197.842 277.772 195.918 278.054 193.982L280.831 173.782C280.845 173.682 280.855 173.582 280.861 173.482C281.378 165.534 281.365 156.869 280.822 147.728C280.784 147.086 280.6 146.461 280.282 145.901C279.965 145.342 279.524 144.862 278.992 144.5C278.493 144.16 266.535 136.299 244.666 146.896C244.302 147.002 242.397 147.475 240.502 146.264C238.623 145.062 235.514 141.432 234.457 130.504C241.649 129.508 258.093 128.352 268.121 136.479C269.091 137.267 270.283 137.73 271.531 137.804C272.778 137.878 274.017 137.558 275.073 136.889C276.125 136.223 276.941 135.243 277.406 134.088C277.871 132.933 277.962 131.661 277.665 130.452C275.997 123.629 271.827 110.009 262.642 95.4533C260.335 91.7975 256.571 89.4204 252.318 88.9312C242.89 87.8468 224.03 87.6946 203.029 98.6819C202.715 98.7083 202.357 98.7193 202.034 98.7083C202.39 97.6543 203.409 95.5413 206.322 91.8586C209.146 89.9199 224.861 79.5788 238.668 79.5788C238.697 79.5781 238.726 79.5795 238.759 79.5788C241.158 79.5788 243.395 78.2975 244.6 76.232C245.821 74.138 245.832 71.6274 244.63 69.515C241.523 64.058 235.912 56.1315 226.827 49.3577C224.156 47.366 220.828 46.2768 217.513 46.3451C212.665 46.4144 203.326 46.6432 195.233 47.3938C191.531 47.7366 188.325 48.1419 185.672 48.7108C186.115 46.9251 186.897 45.0117 188.237 43.3217C188.398 43.1185 188.563 42.9171 188.741 42.7212C190.178 41.9634 194.251 39.9017 198.041 38.7836C198.941 38.5181 199.753 38.0826 200.466 37.5325C201.754 36.5396 202.682 35.1407 203.095 33.5172C203.134 33.3602 203.186 33.208 203.216 33.0471C203.726 30.3045 202.667 27.545 200.452 25.8462C192.974 20.1097 181.967 13.3412 172.031 13.674C171.293 13.6986 170.575 13.917 169.948 14.307C169.317 14.6998 158.901 21.2766 150.982 31.7408C148.437 35.105 146.147 38.8675 144.526 42.9597C142.702 41.7772 141.208 40.5611 140.639 39.7366C140.631 39.7259 140.62 39.7134 140.613 39.703C142.846 33.7422 148.46 20.5008 153.213 16.238C153.509 15.9731 153.767 15.6795 154.008 15.3744C154.593 14.6373 155.02 13.7877 155.263 12.8785C155.506 11.9694 155.559 11.0199 155.42 10.0893C155.251 8.95122 154.801 7.87311 154.111 6.95228C153.421 6.03145 152.513 5.2969 151.468 4.81491C140.992 -0.0344434 132.782 -0.660202 127.655 2.98722C123.247 4.78995 98.2327 16.1361 91.0578 43.348C90.1013 46.9727 89.4974 50.6814 89.2547 54.4224C79.8486 51.4738 65.1016 51.2166 51.5384 63.6191ZM89.8923 61.1878C90.5045 61.1438 91.3147 61.2804 92.1336 61.4866C92.466 61.5722 92.814 61.5776 93.1489 61.5026C93.4839 61.4275 93.7963 61.274 94.0604 61.0548C94.3245 60.8356 94.5329 60.5568 94.6684 60.2414C94.8038 59.926 94.8626 59.583 94.8397 59.2405C94.5243 54.189 96.4917 47.1033 96.4917 47.1033C96.6647 49.1303 97.1178 51.2849 97.7775 53.5314C97.7886 53.4111 97.8059 53.296 97.8174 53.1764C98.2847 48.4324 99.3462 44.1558 100.826 40.3173C109.062 18.9459 130.041 11.0545 131.157 10.6502C131.605 10.4896 132.022 10.2541 132.392 9.95374C133.701 8.88909 136.24 8.76013 139.556 9.48954C140.136 9.61712 140.739 9.76966 141.364 9.94959C142.54 9.497 143.732 9.08821 144.939 8.72407C147.92 7.63376 149.712 7.50411 149.712 7.50411C148.073 7.82895 146.492 8.25397 144.939 8.72407C143.862 9.12043 142.807 9.57065 141.775 10.073C143.098 10.471 144.507 10.9761 145.99 11.5956C139.098 19.3571 133.022 35.91 132.305 37.9048C132.189 38.2291 132.113 38.5666 132.079 38.9095C131.388 45.8185 141.051 51.0277 145.237 52.9465C145.805 53.2066 146.424 53.3371 147.049 53.3286C147.673 53.32 148.288 53.1727 148.849 52.8973C149.012 52.8172 149.152 52.7073 149.301 52.6085C149.572 52.4301 149.821 52.2207 150.043 51.9845C150.545 51.4489 150.923 50.8006 151.092 50.0674C151.521 48.2081 152.159 46.403 152.946 44.6602C155.266 39.521 158.909 34.9431 162.542 31.2378C167.038 26.654 171.513 23.4046 173.428 22.0948C173.943 22.1194 174.479 22.1801 175.026 22.2591C176.511 22.4741 178.107 22.887 179.799 23.4933C181.962 21.5862 183.245 20.5462 183.245 20.5462C182.184 21.5546 181.131 22.5703 180.084 23.5932C184.18 25.104 188.816 27.7204 193.738 31.33C188.832 33.0426 184.329 35.5318 184.116 35.6496C183.774 35.8396 183.46 36.0761 183.184 36.3524C175.258 44.2782 176.795 55.7595 176.864 56.2445C177.177 58.4303 179.125 59.998 181.329 59.8472C182.009 59.7981 182.668 59.5836 183.247 59.2221L183.257 59.2162C183.853 58.844 184.347 58.3286 184.693 57.7169C184.702 57.7006 184.714 57.6856 184.723 57.6694C184.794 57.6395 184.892 57.6094 184.972 57.5796C188.275 56.3454 199.292 55.0238 217.634 54.76C219.116 54.7219 220.603 55.2162 221.796 56.1051C222.828 56.8748 223.791 57.6662 224.721 58.465C227.504 57.5213 229.113 57.0575 229.113 57.0575C227.77 57.6565 226.454 58.2542 225.157 58.8508C230.153 63.2343 233.671 67.869 235.853 71.2679C218.822 72.5478 201.705 84.7963 200.946 85.3458C200.642 85.5652 200.37 85.824 200.135 86.1155C195.846 91.4391 191.325 98.2149 194.45 103.406C197.293 108.129 203.856 107.124 205.144 106.876C205.556 106.797 205.954 106.656 206.325 106.458C225.576 96.1907 242.8 96.3065 251.356 97.2917C253.064 97.4883 254.583 98.4548 255.523 99.9438C261.829 109.937 265.59 119.434 267.749 126.268C251.59 117.996 230.087 122.658 229.071 122.885C228.105 123.101 227.246 123.652 226.645 124.439C226.044 125.226 225.74 126.2 225.787 127.189C226.417 140.633 229.842 149.436 235.967 153.353C241.697 157.019 247.278 154.924 247.895 154.673C247.984 154.636 248.072 154.598 248.158 154.555C261.197 148.188 269.266 149.57 272.553 150.704C272.937 158.527 272.909 165.943 272.471 172.785L269.721 192.794C269.485 194.405 269.197 196.008 268.857 197.6L265.614 205.616C263.137 211.387 260.769 214.228 260.051 215.014C259.282 215.429 258.367 215.79 257.37 216.117C261.208 219.094 263.396 220.75 263.396 220.75C261.085 219.315 258.787 217.86 256.502 216.385C248.326 218.751 234.636 218.691 229.017 218.391C220.504 217.012 214.897 198.709 213.598 192.368C213.512 191.946 213.362 191.54 213.153 191.163C210.067 185.609 206.514 182.919 202.601 183.165C197.98 183.458 195.354 187.677 194.331 189.765C191.205 193.017 189.174 200.496 199.354 223.476C199.582 223.99 199.405 224.416 199.278 224.625C199.153 224.832 198.859 225.185 198.3 225.221C194.127 225.492 189.649 225.42 188.187 225.385C188.086 225.344 187.977 225.279 187.869 225.216C188.473 226.858 188.85 227.782 188.85 227.782C188.326 226.791 187.848 225.83 187.36 224.861C185.043 222.985 181.616 217.116 179.451 211.062C176.877 201.718 173.114 196.508 167.952 195.138C162.272 193.629 158.004 197.69 157.536 198.159C157.145 198.55 156.835 199.014 156.623 199.525C152.688 209.035 152.164 219.835 152.283 226.256C148.884 225.278 144.483 223.673 139.958 221.875C140.15 223.892 140.286 225.031 140.286 225.031C140.06 223.927 139.868 222.847 139.663 221.758C134.999 219.899 130.222 217.843 126.286 216.061C125.748 209.911 124.37 198.486 123.222 189.332L122.29 181.968C121.785 178.031 121.418 175.225 121.336 174.602L120.77 166.359C120.46 148.534 126.082 135.264 126.136 135.138C126.44 134.439 126.548 133.67 126.449 132.914C125.557 126.112 123.048 122.102 118.99 120.994C112.461 119.213 106.253 126.362 104.506 128.597C104.333 128.818 104.183 129.056 104.057 129.307C89.4881 158.445 91.8365 188.758 94.1634 202.976C83.3993 196.646 77.2509 184.728 76.3333 182.855C74.898 177.735 74.4165 172.341 74.4831 167.173C74.6509 154.144 78.3114 142.551 79.0232 140.418C81.59 136.03 83.1216 132.058 83.6351 128.52C84.0951 125.35 83.7394 122.528 82.5437 120.081C79.6108 114.083 73.1639 113.115 72.4383 113.024C71.8147 112.945 71.1814 113.008 70.5853 113.207C58.9837 117.075 53.9714 128.123 51.9108 138.788C51.4982 148.568 52.2072 155.382 52.2072 155.382C51.716 151.509 51.3621 147.621 51.1463 143.723C51.0995 144.119 51.0465 144.518 51.0066 144.909C46.9158 136.481 44.0539 128.33 42.4284 120.595C40.6513 112.141 40.3538 104.185 41.6119 96.9364L43.4604 89.6897C44.0543 87.9578 44.7614 86.2669 45.5773 84.6279L57.4625 69.6097C63.6212 64.0659 69.7377 61.8555 75.0398 61.2856C83.3276 60.3943 89.6132 63.5147 90.9427 64.2421C90.4277 63.6062 89.9152 62.9683 89.4052 62.3284C89.0575 61.8888 89.3338 61.2277 89.8923 61.1878Z" fill="#70BA11"/>
<path d="M90.9438 64.2407C91.3927 64.7957 91.9169 65.4395 92.509 66.163L91.6406 65.1195C91.6406 65.1195 66.4495 68.3072 58.7556 90.5145C58.7556 90.5145 49.2874 110.202 51.1481 143.722C51.3639 147.619 51.7177 151.508 52.2089 155.38C52.2089 155.38 51.4999 148.566 51.9125 138.786C52.8731 116.017 59.9218 77.1521 96.2039 70.6279C98.5813 73.4697 100.981 76.2929 103.402 79.0973L100.722 76.051C100.722 76.051 103.054 93.8367 98.1578 101.705C98.1578 101.705 81.0215 125.311 85.5678 172.349C85.5678 172.349 82.5482 105.462 113.168 90.2059C125.654 104.154 138.575 117.707 151.912 130.845L148.039 127.048C148.039 127.048 128.623 163.024 139.665 221.757C139.87 222.846 140.062 223.925 140.288 225.03C140.288 225.03 140.153 223.89 139.96 221.873C138.582 207.451 134.293 147.887 155.889 134.745L154.517 133.399C162.392 141.088 170.824 149.027 179.739 157.023C179.864 156.837 179.938 156.74 179.938 156.74L185.533 161.679C185.456 161.773 185.386 161.873 185.311 161.969C206.838 180.902 230.935 199.907 256.503 216.383C258.788 217.858 261.086 219.313 263.396 220.748C263.396 220.748 261.209 219.092 257.371 216.115C249.893 210.316 236.082 199.447 219.555 185.709C223.098 178.268 263.168 189.31 263.168 189.31C236.301 174.239 213.29 177.623 210.49 178.11C191.545 162.096 170.169 143.161 151.076 124.171C151.029 123.158 150.277 93.2831 225.157 58.8488C226.454 58.2521 227.77 57.6545 229.114 57.0554C229.114 57.0554 227.504 57.5192 224.722 58.4629C209.689 63.5605 160.408 82.6584 145.497 118.262L150.644 123.737C145.41 118.522 140.359 113.307 135.574 108.147C134.537 104.973 126.9 75.505 180.084 23.5911C181.13 22.5682 182.184 21.5526 183.244 20.5441C183.244 20.5441 181.961 21.5845 179.798 23.4912C168.375 33.5626 132.316 67.903 129.952 101.969C116.817 87.2339 106.305 73.1867 100.745 61.2492L102.765 65.1185C115.407 28.0088 132.079 14.7729 141.775 10.0716C142.806 9.56903 143.862 9.11881 144.938 8.72269C143.732 9.08683 142.54 9.49561 141.364 9.9482C113.376 20.7424 100.512 53.7286 99.1223 57.5023C98.5915 56.1422 98.1568 54.8238 97.7768 53.53C97.1171 51.2835 96.664 49.1289 96.491 47.1019C96.491 47.1019 94.5239 54.188 94.8391 59.2391C94.862 59.5816 94.8033 59.9247 94.6678 60.2402C94.5324 60.5556 94.324 60.8344 94.0599 61.0536C93.7957 61.2729 93.4833 61.4263 93.1483 61.5014C92.8133 61.5764 92.4653 61.5709 92.1329 61.4853C91.3137 61.279 90.5038 61.1424 89.8916 61.1864C89.3331 61.2266 89.0568 61.8874 89.4056 62.3256C89.9155 62.9662 90.4283 63.6045 90.9438 64.2407Z" fill="#137B3B"/>
<path d="M185.311 161.969C185.386 161.873 185.456 161.774 185.533 161.679L179.938 156.74C179.938 156.74 179.865 156.837 179.739 157.023C177.958 159.657 165.245 181.052 187.362 224.859C187.851 225.828 188.329 226.789 188.852 227.78C188.852 227.78 188.475 226.856 187.871 225.214C184.201 215.241 172.154 178.776 185.311 161.969Z" fill="#2E833A"/>
<path d="M144.939 8.72372C146.492 8.25362 148.073 7.82859 149.713 7.50375C149.713 7.50375 147.92 7.63341 144.939 8.72372Z" fill="#137B3B"/>
<path d="M161.924 65.6759C161.924 65.6759 141.815 81.072 148.459 93.3122C148.459 93.3122 160.7 98.7329 160.525 81.5965C160.525 81.5965 161.399 70.4053 164.197 72.3287C164.197 72.3287 169.618 72.8532 166.995 67.7823C166.995 67.7827 166.819 63.7446 161.924 65.6759ZM171.166 56.9288C168.703 56.9288 166.707 59.0034 166.707 61.5626C166.707 64.1217 168.703 66.1963 171.166 66.1963C173.628 66.1963 175.625 64.1217 175.625 61.5626C175.625 59.0034 173.628 56.9288 171.166 56.9288Z" fill="#FCFDFD"/>
<path d="M150.033 158.186C150.033 160.69 151.028 163.092 152.799 164.863C154.569 166.633 156.971 167.628 159.475 167.628C161.98 167.628 164.381 166.633 166.152 164.863C167.923 163.092 168.918 160.69 168.918 158.186C168.918 155.681 167.923 153.28 166.152 151.509C164.381 149.738 161.98 148.743 159.475 148.743C156.971 148.743 154.569 149.738 152.799 151.509C151.028 153.28 150.033 155.681 150.033 158.186Z" fill="#FCFDFD"/>
<path d="M5.82812 154.359L5.875 152.953C6.21875 143.609 8.59375 134.781 13 126.469C16.9375 118.938 22.0312 112.797 28.2812 108.047C34.3438 103.422 40.25 101.109 46 101.109C50.375 101.109 53.8125 102.625 56.3125 105.656C58.5 108.281 59.5938 111.5 59.5938 115.312C59.5938 119.875 57.9219 124.375 54.5781 128.812C52.6406 131.375 50.5938 133.219 48.4375 134.344C47.375 134.906 46.3906 135.188 45.4844 135.188C44.6094 135.188 43.7969 135 43.0469 134.625C42.2969 134.25 41.6562 133.781 41.125 133.219C39.9375 132 39.3438 130.906 39.3438 129.938C39.3438 128.969 39.5938 128.297 40.0938 127.922C45.2188 124.234 48.7188 120.438 50.5938 116.531C51.2812 115.031 51.625 113.562 51.625 112.125C51.625 109.094 50.1875 107.578 47.3125 107.578C42.75 107.578 38.0312 110.156 33.1562 115.312C28.625 120.094 24.7812 126.094 21.625 133.312C18.4375 140.719 16.75 147.516 16.5625 153.703C16.25 160.297 17.8125 164.719 21.25 166.969C22.4375 167.75 23.9062 168.141 25.6562 168.141C27.4062 168.141 29.0625 167.719 30.625 166.875C32.2188 166.031 33.5938 164.969 34.75 163.688C37.1875 160.875 38.4375 157.953 38.5 154.922C38.5625 152.641 37.75 151.062 36.0625 150.188C35.375 149.844 34.625 149.578 33.8125 149.391C33.0312 149.203 32.375 148.984 31.8438 148.734C31.3438 148.453 31.2188 147.953 31.4688 147.234C31.7188 146.484 32.1875 145.719 32.875 144.938C34.6875 142.938 36.6719 141.938 38.8281 141.938C39.5469 141.938 40.625 142.094 42.0625 142.406C44.75 143 46.5625 143.297 47.5 143.297C48.4375 143.297 49.1719 143.281 49.7031 143.25C50.2656 143.188 50.8281 143.094 51.3906 142.969C52.6719 142.688 53.875 142.344 55 141.938C56.8438 141.312 57.7656 141.734 57.7656 143.203C57.7656 144.641 57.4688 146 56.875 147.281C56.2812 148.562 55.4688 149.656 54.4375 150.562C52.2188 152.562 49.4688 153.531 46.1875 153.469C46.5312 155.5 45.8125 158.125 44.0312 161.344C40.875 167.125 36.3438 171.109 30.4375 173.297C28.3438 174.078 25.9844 174.469 23.3594 174.469C20.7656 174.469 18.375 174.016 16.1875 173.109C14 172.172 12.125 170.844 10.5625 169.125C7.40625 165.562 5.82812 160.641 5.82812 154.359ZM141.595 155.766L141.173 159.375C141.173 163.156 142.439 165.734 144.97 167.109C145.845 167.578 146.892 167.812 148.111 167.812C149.329 167.812 150.423 167.609 151.392 167.203C152.361 166.766 153.158 166.203 153.783 165.516C155.095 164.109 155.751 162.484 155.751 160.641C155.751 158.797 155.376 157.125 154.626 155.625C153.876 154.125 152.939 152.625 151.814 151.125L148.064 146.531C145.033 142.906 143.001 139.609 141.97 136.641C140.939 133.641 140.423 130.891 140.423 128.391C140.423 125.891 140.72 123.531 141.314 121.312C141.939 119.062 142.798 116.938 143.892 114.938C144.986 112.906 146.298 111.047 147.829 109.359C149.361 107.672 151.064 106.219 152.939 105C156.845 102.375 160.72 101.062 164.564 101.062C168.408 101.062 171.408 101.594 173.564 102.656C175.72 103.719 177.454 105.062 178.767 106.688C181.204 109.75 182.423 113.453 182.423 117.797C182.423 121.828 181.283 125.625 179.001 129.188C176.908 132.438 174.564 134.5 171.97 135.375C171.408 135.656 170.626 135.797 169.626 135.797C168.658 135.797 167.829 135.656 167.142 135.375C166.486 135.062 165.908 134.656 165.408 134.156C164.314 133.062 163.767 131.875 163.767 130.594C163.767 129.719 164.033 129.141 164.564 128.859C166.939 127.578 169.001 125.719 170.751 123.281C172.658 120.625 173.658 117.984 173.751 115.359C173.845 112.703 173.204 110.75 171.829 109.5C170.486 108.219 168.689 107.578 166.439 107.578C164.189 107.578 162.158 108.094 160.345 109.125C158.533 110.125 156.97 111.484 155.658 113.203C152.845 116.891 151.439 121.25 151.439 126.281C151.439 129.625 152.595 133.156 154.908 136.875C155.876 138.469 156.923 140.047 158.048 141.609C159.204 143.141 160.283 144.719 161.283 146.344C163.564 150.125 164.704 153.516 164.704 156.516C164.704 159.516 164.158 162.047 163.064 164.109C162.001 166.172 160.579 167.969 158.798 169.5C154.954 172.812 150.579 174.469 145.673 174.469C141.048 174.469 137.486 173.094 134.986 170.344C132.986 168.125 131.986 165.719 131.986 163.125C131.986 160.312 132.783 157.938 134.376 156C135.595 154.531 136.767 153.656 137.892 153.375C140.361 152.719 141.595 153.516 141.595 155.766Z" fill="black"/>
<path d="M56.2712 172.875C55.6462 172.406 55.1462 171.891 54.7712 171.328C54.3962 170.734 54.1931 170.234 54.1619 169.828C54.1306 169.391 54.2087 168.875 54.3962 168.281C54.615 167.656 54.8962 166.906 55.24 166.031C61.615 150.344 64.8025 139.812 64.8025 134.438C64.7087 132.938 64.1931 131.875 63.2556 131.25L62.3181 130.594C62.0369 130.375 61.8806 130 61.8494 129.469C61.8494 128.906 62.0525 128.375 62.4587 127.875C62.865 127.375 63.3962 126.938 64.0525 126.562C65.3962 125.844 66.7712 125.484 68.1775 125.484C69.615 125.484 70.7244 125.641 71.5056 125.953C72.3181 126.266 73.0056 126.688 73.5681 127.219C74.7556 128.344 75.3494 129.531 75.3494 130.781C75.3806 132.031 75.24 133.297 74.9275 134.578C74.6462 135.859 74.3025 137.125 73.8962 138.375C73.49 139.594 73.0837 140.766 72.6775 141.891C72.2712 142.984 72.0056 143.797 71.8806 144.328C71.6306 145.422 71.5369 146.109 71.5994 146.391C72.3494 145.734 72.8025 145.094 72.9587 144.469L74.7869 141C78.8494 133.688 82.8181 128.844 86.6931 126.469C87.8181 125.812 89.1619 125.484 90.7244 125.484C92.3181 125.484 93.5994 126.047 94.5681 127.172C95.5369 128.266 96.0369 129.484 96.0681 130.828C96.1306 132.172 96.0369 133.297 95.7869 134.203C95.5681 135.078 95.2244 135.906 94.7556 136.688C93.7244 138.438 92.4744 139.312 91.0056 139.312C90.5994 139.312 90.2244 139.172 89.8806 138.891L88.8494 138C87.8181 137.094 86.8181 136.641 85.8494 136.641C84.9119 136.641 83.7556 137.266 82.3806 138.516C81.0369 139.766 79.6306 141.375 78.1619 143.344C73.2244 149.875 69.1931 157.188 66.0681 165.281L64.0056 170.719C63.4744 172.062 63.0056 173.031 62.5994 173.625C62.1931 174.188 61.5837 174.469 60.7712 174.469C59.99 174.469 59.1931 174.312 58.3806 174C57.5994 173.719 56.8962 173.344 56.2712 172.875ZM93.8706 170.812C92.5581 169.562 91.5269 167.984 90.7769 166.078C90.0269 164.141 89.6362 161.859 89.605 159.234C89.5737 156.609 89.8862 153.953 90.5425 151.266C91.23 148.578 92.1831 145.984 93.4019 143.484C94.6519 140.984 96.1362 138.641 97.855 136.453C99.605 134.266 101.527 132.359 103.621 130.734C108.183 127.234 112.917 125.484 117.824 125.484C124.261 125.484 128.621 128.312 130.902 133.969C132.527 138.062 132.621 143.016 131.183 148.828C129.871 154.172 127.464 159.078 123.964 163.547C120.496 168.016 116.402 171.188 111.683 173.062C109.308 174 106.964 174.469 104.652 174.469C102.371 174.469 100.324 174.172 98.5112 173.578C96.73 172.984 95.1831 172.062 93.8706 170.812ZM102.824 148.078C101.886 150.391 101.136 152.766 100.574 155.203C100.042 157.641 99.7925 159.953 99.8237 162.141C99.855 164.297 100.183 166 100.808 167.25C101.464 168.469 102.511 169.078 103.949 169.078C105.386 169.078 106.792 168.594 108.167 167.625C109.574 166.625 110.933 165.312 112.246 163.688C113.558 162.062 114.792 160.188 115.949 158.062C117.105 155.938 118.121 153.719 118.996 151.406C120.902 146.375 121.824 141.906 121.761 138C121.761 134.562 121.058 132.375 119.652 131.438C119.089 131.062 118.292 130.875 117.261 130.875C116.261 130.875 115.105 131.344 113.792 132.281C112.48 133.188 111.167 134.422 109.855 135.984C108.542 137.547 107.277 139.375 106.058 141.469C104.839 143.562 103.761 145.766 102.824 148.078ZM209.147 161.531C209.147 164.406 210.163 165.844 212.194 165.844C213.601 165.844 214.757 165.625 215.663 165.188C216.601 164.75 217.226 164.531 217.538 164.531C218.194 164.531 218.522 164.875 218.522 165.562C218.522 168.25 217.116 170.562 214.304 172.5C211.335 174.531 208.304 175.031 205.21 174C203.179 173.281 201.679 171.734 200.71 169.359C200.241 168.141 200.007 167.031 200.007 166.031C200.007 164.406 200.163 162.688 200.476 160.875C197.569 166.812 193.96 170.906 189.647 173.156C187.929 174.031 186.101 174.469 184.163 174.469C182.226 174.469 180.538 174.078 179.101 173.297C177.694 172.484 176.491 171.375 175.491 169.969C173.46 167.031 172.538 163.344 172.726 158.906C172.913 153.344 174.554 147.891 177.647 142.547C180.491 137.547 184.085 133.469 188.429 130.312C192.772 127.094 196.835 125.484 200.616 125.484C204.397 125.484 207.444 127.219 209.757 130.688C211.913 127.219 213.819 125.484 215.476 125.484C217.257 125.484 218.601 125.812 219.507 126.469C221.226 127.719 221.835 128.812 221.335 129.75C213.491 145.812 209.46 155.812 209.241 159.75C209.179 160.312 209.147 160.906 209.147 161.531ZM183.132 161.719C183.132 165.469 184.335 167.344 186.741 167.344C188.585 167.344 190.851 165.781 193.538 162.656C197.476 158.062 200.96 151.875 203.991 144.094C204.96 141.656 205.772 139.219 206.429 136.781C206.304 134.656 205.413 133.094 203.757 132.094C203.194 131.75 202.351 131.578 201.226 131.578C200.132 131.578 198.835 131.984 197.335 132.797C195.866 133.609 194.429 134.719 193.022 136.125C191.647 137.531 190.351 139.203 189.132 141.141C187.944 143.047 186.897 145.125 185.991 147.375C184.085 152.188 183.132 156.969 183.132 161.719ZM219.419 169.453C218.95 168.422 218.716 167.203 218.716 165.797C218.716 164.391 218.934 162.844 219.372 161.156C219.809 159.438 220.372 157.688 221.059 155.906C221.747 154.125 222.512 152.312 223.356 150.469L225.747 145.031C228.841 137.875 229.981 133.656 229.169 132.375C228.794 131.781 228.075 131.188 227.012 130.594C226.669 130.375 226.497 130 226.497 129.469C226.497 128.906 226.716 128.375 227.153 127.875C227.622 127.375 228.231 126.938 228.981 126.562C230.481 125.844 231.997 125.484 233.528 125.484C235.059 125.484 236.216 125.656 236.997 126C237.809 126.312 238.481 126.719 239.012 127.219C240.012 128.25 240.512 129.5 240.512 130.969C240.512 132.438 240.231 134.094 239.669 135.938C239.106 137.781 238.403 139.719 237.559 141.75C236.716 143.781 235.794 145.859 234.794 147.984L232.028 154.125C230.059 158.656 229.075 161.656 229.075 163.125C229.075 166 230.091 167.438 232.122 167.438C237.341 167.438 242.231 164.344 246.794 158.156C249.45 154.562 251.356 150.656 252.512 146.438C253.044 144.438 253.309 142.625 253.309 141C253.309 139.344 253.247 137.969 253.122 136.875C253.028 135.781 252.856 134.812 252.606 133.969C252.2 132.469 251.512 131.172 250.544 130.078C249.887 129.266 250.184 128.312 251.434 127.219C252.809 126.062 254.762 125.484 257.294 125.484C258.856 125.484 260.231 126.219 261.419 127.688C262.919 129.438 263.669 131.953 263.669 135.234C263.669 138.484 263.184 141.688 262.216 144.844C261.247 147.969 259.919 150.984 258.231 153.891C256.544 156.766 254.544 159.453 252.231 161.953C249.95 164.453 247.481 166.625 244.825 168.469C239.137 172.469 233.45 174.469 227.762 174.469C223.669 174.469 220.887 172.797 219.419 169.453ZM262.971 157.594C263.096 154.875 263.549 152.281 264.331 149.812C265.112 147.312 266.159 144.906 267.471 142.594C268.784 140.25 270.315 138.047 272.065 135.984C273.846 133.891 275.768 132.062 277.831 130.5C282.299 127.156 286.815 125.484 291.378 125.484C296.721 125.484 300.284 127.688 302.065 132.094C302.69 133.594 302.987 135.375 302.956 137.438C302.924 139.469 302.534 141.359 301.784 143.109C301.034 144.828 299.987 146.406 298.643 147.844C297.331 149.25 295.753 150.516 293.909 151.641C292.096 152.766 290.112 153.719 287.956 154.5C283.518 156.062 278.768 156.875 273.706 156.938C273.581 157.375 273.503 158.031 273.471 158.906C273.44 159.781 273.534 160.766 273.753 161.859C273.971 162.922 274.346 163.875 274.878 164.719C276.003 166.594 277.628 167.531 279.753 167.531C283.378 167.531 286.909 166.469 290.346 164.344C291.565 163.625 292.549 162.891 293.299 162.141C294.081 161.359 294.753 160.969 295.315 160.969C295.878 160.969 296.362 161.312 296.768 162C297.206 162.656 297.424 163.406 297.424 164.25C297.424 165.906 296.956 167.344 296.018 168.562C292.081 172.5 286.221 174.469 278.44 174.469C273.846 174.469 270.159 173.094 267.378 170.344C264.253 167.219 262.784 162.969 262.971 157.594ZM290.346 131.719C287.065 131.719 283.909 133.969 280.878 138.469C278.315 142.344 276.253 146.938 274.69 152.25C279.909 151.719 284.44 149.656 288.284 146.062C291.815 142.688 293.581 139.453 293.581 136.359C293.581 133.266 292.503 131.719 290.346 131.719ZM302.211 172.875C301.586 172.406 301.086 171.891 300.711 171.328C300.336 170.734 300.133 170.234 300.102 169.828C300.071 169.391 300.149 168.875 300.336 168.281C300.555 167.656 300.836 166.906 301.18 166.031C307.555 150.344 310.742 139.812 310.742 134.438C310.649 132.938 310.133 131.875 309.196 131.25L308.258 130.594C307.977 130.375 307.821 130 307.789 129.469C307.789 128.906 307.992 128.375 308.399 127.875C308.805 127.375 309.336 126.938 309.992 126.562C311.336 125.844 312.711 125.484 314.117 125.484C315.555 125.484 316.664 125.641 317.446 125.953C318.258 126.266 318.946 126.688 319.508 127.219C320.696 128.344 321.289 129.531 321.289 130.781C321.321 132.031 321.18 133.297 320.867 134.578C320.586 135.859 320.242 137.125 319.836 138.375C319.43 139.594 319.024 140.766 318.617 141.891C318.211 142.984 317.946 143.797 317.821 144.328C317.571 145.422 317.477 146.109 317.539 146.391C318.289 145.734 318.742 145.094 318.899 144.469L320.727 141C324.789 133.688 328.758 128.844 332.633 126.469C333.758 125.812 335.102 125.484 336.664 125.484C338.258 125.484 339.539 126.047 340.508 127.172C341.477 128.266 341.977 129.484 342.008 130.828C342.071 132.172 341.977 133.297 341.727 134.203C341.508 135.078 341.164 135.906 340.696 136.688C339.664 138.438 338.414 139.312 336.946 139.312C336.539 139.312 336.164 139.172 335.821 138.891L334.789 138C333.758 137.094 332.758 136.641 331.789 136.641C330.852 136.641 329.696 137.266 328.321 138.516C326.977 139.766 325.571 141.375 324.102 143.344C319.164 149.875 315.133 157.188 312.008 165.281L309.946 170.719C309.414 172.062 308.946 173.031 308.539 173.625C308.133 174.188 307.524 174.469 306.711 174.469C305.93 174.469 305.133 174.312 304.321 174C303.539 173.719 302.836 173.344 302.211 172.875Z" fill="#313131"/>
</svg>
