<?xml version="1.0" standalone="no"?><!DOCTYPE svg PUBLIC "-//W3C//DTD SVG 1.1//EN" "http://www.w3.org/Graphics/SVG/1.1/DTD/svg11.dtd"><svg t="1663256264143" class="icon" viewBox="0 0 1024 1024" version="1.1" xmlns="http://www.w3.org/2000/svg" p-id="6188" xmlns:xlink="http://www.w3.org/1999/xlink" width="200" height="200"><path d="M745 580.4v-224c0-28.4-23-51.2-51.2-51.2-28.4 0-51.2 23-51.2 51.2v224c-31 18-51.8 52-51 90.6 1 56.2 46.2 100.4 102.4 100.4 56.6 0 102.4-45.8 102.4-102.4-0.2-37.8-20.8-70.8-51.4-88.6z" fill="#E56823" p-id="6189"></path><path d="M385.4 785.4c-7.8 0-14-6.2-14-14V360c0-7.8 6.2-14 14-14s14 6.2 14 14v411.4c0 7.6-6.2 14-14 14z" fill="#463218" p-id="6190"></path><path d="M569.8 437.2c-39.4-19.6-87.8-18.4-127.2 7.6-39.4 26-59.6 70-57 114 39.4 19.6 87.8 18.4 127.2-7.6 39.4-26.2 59.6-70.2 57-114z" fill="#7DAC51" p-id="6191"></path><path d="M569.8 437.2s-87.8-18.4-127.2 7.6c-39.4 26-57 114-57 114l184.2-121.6z" fill="#5B7C31" p-id="6192"></path><path d="M442.6 586c-21.6 0-43.2-5-63.2-14.8-4.4-2.2-7.4-6.8-7.8-11.8-3-50.2 21.2-98.8 63.2-126.4 42-27.8 96-31 141.2-8.4 4.4 2.2 7.4 6.8 7.8 11.8 3 50.2-21.2 98.8-63.2 126.4-23.6 15.4-50.8 23.2-78 23.2z m-43.2-36.4c34.6 14.2 74.4 10.4 105.6-10.2 31.4-20.6 50.4-55.8 50.8-93.2-34.6-14.2-74.4-10.4-105.6 10.2-31.2 20.8-50.2 55.8-50.8 93.2z" fill="#463218" p-id="6193"></path><path d="M240.2 487c31-15.4 69.2-14.4 100.2 6s46.8 55.2 44.8 89.6c-31 15.4-69.2 14.4-100.2-6-30.8-20.4-46.8-55-44.8-89.6z" fill="#7DAC51" p-id="6194"></path><path d="M385.2 582.8c-31 15.4-69.2 14.4-100.2-6s-46.8-55.2-44.8-89.8" fill="#5B7C31" p-id="6195"></path><path d="M340.4 607.2c-22 0-44-6.4-63-18.8-34-22.4-53.6-61.6-51.2-102.2 0.2-5 3.2-9.4 7.8-11.8 36.4-18.2 80.2-15.6 114 6.8 34 22.4 53.6 61.6 51.2 102.2-0.2 5-3.2 9.4-7.8 11.8-16 8-33.6 12-51 12z m-86.2-111c1 27.6 15.4 53.4 38.6 68.8 23.2 15.4 52.6 18.4 78.6 8.6-1-27.6-15.4-53.4-38.6-68.8-23.4-15.4-52.8-18.6-78.6-8.6zM696.6 785.4H297c-45.8 0-83.2-37.2-83.2-83.2 0-45.8 37.2-83.2 83.2-83.2h15.6c7.8 0 14 6.2 14 14s-6.2 14-14 14h-15.6c-30.4 0-55.2 24.8-55.2 55.2 0 30.4 24.8 55.2 55.2 55.2h399.6c7.8 0 14 6.2 14 14s-6.2 14-14 14z" fill="#463218" p-id="6196"></path><path d="M354.2 457a68.2 37.2 90 1 0 74.4 0 68.2 37.2 90 1 0-74.4 0Z" fill="#E56823" p-id="6197"></path><path d="M354.2 320.8a68.2 37.2 90 1 0 74.4 0 68.2 37.2 90 1 0-74.4 0Z" fill="#E56823" p-id="6198"></path><path d="M391.4 539.2c-29.2 0-51.2-35.4-51.2-82.2s22-82.2 51.2-82.2 51.2 35.4 51.2 82.2-22 82.2-51.2 82.2z m0-136.4c-9.2 0-23.2 21.6-23.2 54.2 0 15.6 3.4 30.8 9.2 41.4 4.2 7.8 9.6 12.6 14 12.6 9.2 0 23.2-21.6 23.2-54.2 0-15.6-3.4-30.8-9.2-41.4-4.2-7.6-9.6-12.6-14-12.6z" fill="#463218" p-id="6199"></path><path d="M391.4 402.8c-29.2 0-51.2-35.4-51.2-82.2 0-46.8 22-82.2 51.2-82.2s51.2 35.4 51.2 82.2c0 47-22 82.2-51.2 82.2z m0-136.2c-9.2 0-23.2 21.6-23.2 54.2 0 15.6 3.4 30.8 9.2 41.4 4.2 7.8 9.6 12.6 14 12.6 9.2 0 23.2-21.6 23.2-54.2 0-15.6-3.4-30.8-9.2-41.4-4.2-7.8-9.6-12.6-14-12.6z" fill="#463218" p-id="6200"></path><path d="MNaN NaNaNaN NaN NaN 1 0 NaN NaN NaN NaN NaN 1 0 NaN NaNZ" fill="#E56823" p-id="6201"></path><path d="MNaN NaNaNaN NaN NaN 1 0 NaN NaN NaN NaN NaN 1 0 NaN NaNZ" fill="#E56823" p-id="6202"></path><path d="M459.6 440c-46.8 0-82.2-22-82.2-51.2s35.4-51.2 82.2-51.2 82.2 22 82.2 51.2-35.4 51.2-82.2 51.2z m0-74.2c-15.6 0-30.8 3.4-41.4 9.2-7.8 4.2-12.6 9.6-12.6 14 0 9.2 21.6 23.2 54.2 23.2 15.6 0 30.8-3.4 41.4-9.2 7.8-4.2 12.6-9.6 12.6-14 0-9.4-21.6-23.2-54.2-23.2z" fill="#463218" p-id="6203"></path><path d="M323.4 440c-46.8 0-82.2-22-82.2-51.2s35.4-51.2 82.2-51.2 82.2 22 82.2 51.2-35.4 51.2-82.2 51.2z m0-74.2c-15.6 0-30.8 3.4-41.4 9.2-7.8 4.2-12.6 9.6-12.6 14 0 9.2 21.6 23.2 54.2 23.2 15.6 0 30.8-3.4 41.4-9.2 7.8-4.2 12.6-9.6 12.6-14-0.2-9.4-21.8-23.2-54.2-23.2z" fill="#463218" p-id="6204"></path><path d="M391.470629 388.945403a39.8 73.2 44.999 1 0 103.518626-103.522239 39.8 73.2 44.999 1 0-103.518626 103.522239Z" fill="#FEFE71" p-id="6205"></path><path d="M288.002041 492.315823a39.8 73.2 44.999 1 0 103.518626-103.52224 39.8 73.2 44.999 1 0-103.518626 103.52224Z" fill="#FEFE71" p-id="6206"></path><path d="M415.038913 468.746128a73.2 39.8 44.999 1 0 56.284717-56.286682 73.2 39.8 44.999 1 0-56.284717 56.286682Z" fill="#FEFE71" p-id="6207"></path><path d="M311.668494 365.277541a73.2 39.8 44.999 1 0 56.284717-56.286683 73.2 39.8 44.999 1 0-56.284717 56.286683Z" fill="#FEFE71" p-id="6208"></path><path d="M411.4 410.2c-11.8 0-22-3.6-29.8-11.4-11.4-11.4-14.2-28.8-8.4-49 5-17.4 16.4-35.4 31.8-50.8 35.2-35.2 78-45.2 99.8-23.6 11.4 11.4 14.2 28.8 8.4 49-5 17.4-16.4 35.4-31.8 50.8-22.8 22.8-48.6 35-70 35z m63.8-118c-12 0-31.6 8-50.2 26.6-12 12-21 26.2-24.8 38.8-2.8 9.6-2.4 17.6 1.2 21.2 7.4 7.4 34.6 2 60.2-23.6 12-12 21-26.2 24.8-38.8 2.8-9.6 2.4-17.6-1.2-21.2-2.2-1.8-5.6-3-10-3z" fill="#463218" p-id="6209"></path><path d="M307.8 513.6c-11.8 0-22-3.6-29.8-11.4-11.4-11.4-14.2-28.8-8.4-49 5-17.4 16.4-35.4 31.8-50.8 35.2-35.2 78-45.2 99.8-23.6 21.8 21.8 11.6 64.6-23.6 99.8-22.4 22.8-48.4 35-69.8 35z m63.8-117.8c-12 0-31.6 8-50.2 26.6-12 12-21 26.2-24.8 38.8-2.8 9.6-2.4 17.6 1.2 21.2 7.4 7.4 34.6 2 60.2-23.6 12-12 21-26.2 24.8-38.8 2.8-9.6 2.4-17.6-1.2-21.2-2-2-5.4-3-10-3z" fill="#463218" p-id="6210"></path><path d="M475 513.6c-21.4 0-47.2-12.2-70-35-35.2-35.2-45.2-78-23.6-99.8 21.8-21.8 64.6-11.6 99.8 23.6 15.4 15.4 26.8 33.4 31.8 50.8 6 20.2 3 37.6-8.4 49-7.4 7.8-17.8 11.4-29.6 11.4z m-63.8-117.8c-4.4 0-7.8 1-9.8 3-3.6 3.6-4.2 11.6-1.2 21.2 3.8 12.8 12.8 26.8 24.8 38.8 25.6 25.6 52.6 31 60.2 23.6 3.6-3.6 4.2-11.6 1.2-21.2-3.8-12.8-12.8-26.8-24.8-38.8-18.8-18.8-38.4-26.6-50.4-26.6z" fill="#463218" p-id="6211"></path><path d="M371.6 410.2c-21.4 0-47.2-12.2-70-35-15.4-15.4-26.8-33.4-31.8-50.8-6-20.2-3-37.6 8.4-49 21.8-21.8 64.6-11.6 99.8 23.6 15.4 15.4 26.8 33.4 31.8 50.8 6 20.2 3 37.6-8.4 49-7.8 7.6-18.2 11.4-29.8 11.4z m-63.8-118c-4.4 0-7.8 1-9.8 3-3.6 3.6-4.2 11.6-1.2 21.2 3.8 12.8 12.8 26.8 24.8 38.8 25.6 25.6 52.6 31 60.2 23.6 3.6-3.6 4.2-11.6 1.2-21.2-3.8-12.8-12.8-26.8-24.8-38.8-18.8-18.6-38.4-26.6-50.4-26.6z" fill="#463218" p-id="6212"></path><path d="M351.473807 428.750307a56.4 56.4 0 1 0 79.760253-79.763037 56.4 56.4 0 1 0-79.760253 79.763037Z" fill="#FEFE71" p-id="6213"></path><path d="M375.373599 404.849681a22.6 22.6 0 1 0 31.960669-31.961785 22.6 22.6 0 1 0-31.960669 31.961785Z" fill="#FFFFFF" p-id="6214"></path><path d="M391.4 459.2c-18 0-36-6.8-49.8-20.6-27.4-27.4-27.4-72.2 0-99.6 27.4-27.4 72.2-27.4 99.6 0 27.4 27.4 27.4 72.2 0 99.6-13.6 13.8-31.8 20.6-49.8 20.6z m0-112.6c-10.8 0-21.8 4.2-30 12.4-16.6 16.6-16.6 43.4 0 60s43.4 16.6 60 0 16.6-43.4 0-60c-8.2-8.4-19-12.4-30-12.4z m40 82.2z" fill="#463218" p-id="6215"></path><path d="M693.8 785.4c-64 0-115.2-50.2-116.4-114.2-0.8-39.6 18.6-76.6 51-98.6V356.4c0-36 29.2-65.2 65.2-65.2s65.2 29.2 65.2 65.2v216.4c31.8 21.6 51.2 57.8 51.2 96.4 0.2 64-52 116.2-116.2 116.2z m0-466.4c-20.6 0-37.2 16.8-37.2 37.2v224c0 5-2.6 9.6-7 12.2-27.8 16.2-44.8 46.2-44.2 78.2 1 48.6 39.8 86.6 88.4 86.6 48.8 0 88.4-39.6 88.4-88.4 0-31.4-17-60.8-44.2-76.6-4.4-2.6-7-7.2-7-12.2V356c0-20.2-16.8-37-37.2-37z" fill="#463218" p-id="6216"></path><path d="M693.8 669.6m-44.2 0a44.2 44.2 0 1 0 88.4 0 44.2 44.2 0 1 0-88.4 0Z" fill="#FFFFFF" p-id="6217"></path><path d="M693.8 727.8c-32.2 0-58.2-26.2-58.2-58.2 0-32.2 26.2-58.2 58.2-58.2s58.2 26.2 58.2 58.2c0 32.2-26.2 58.2-58.2 58.2z m0-88.4c-16.6 0-30.2 13.6-30.2 30.2s13.6 30.2 30.2 30.2 30.2-13.6 30.2-30.2-13.6-30.2-30.2-30.2z" fill="#463218" p-id="6218"></path><path d="M669.6 410.6h-27.2c-7.8 0-14-6.2-14-14s6.2-14 14-14h27.2c7.8 0 14 6.2 14 14s-6.2 14-14 14z" fill="#463218" p-id="6219"></path><path d="M669.6 476h-27.2c-7.8 0-14-6.2-14-14s6.2-14 14-14h27.2c7.8 0 14 6.2 14 14s-6.2 14-14 14z" fill="#463218" p-id="6220"></path><path d="M669.6 541.2h-27.2c-7.8 0-14-6.2-14-14s6.2-14 14-14h27.2c7.8 0 14 6.2 14 14s-6.2 14-14 14z" fill="#463218" p-id="6221"></path><path d="M696.6 431.2h21.6v61.6h-21.6zM696.6 389.2h21.6v23.4h-21.6z" fill="#FFFFFF" p-id="6222"></path></svg>