<?xml version="1.0" standalone="no"?><!DOCTYPE svg PUBLIC "-//W3C//DTD SVG 1.1//EN" "http://www.w3.org/Graphics/SVG/1.1/DTD/svg11.dtd"><svg t="1663298162242" class="icon" viewBox="0 0 1024 1024" version="1.1" xmlns="http://www.w3.org/2000/svg" p-id="12062" xmlns:xlink="http://www.w3.org/1999/xlink" width="200" height="200"><path d="M539.648 20.48s-110.592 48.128-90.112 165.888 83.968 196.608 69.632 261.12C504.832 512 552.96 484.352 552.96 484.352s62.464-158.72 7.168-235.52-61.44-206.848-20.48-228.352z" fill="#37EFC3" p-id="12063"></path><path d="M533.504 500.736c-5.12 0-11.264-1.024-15.36-5.12-11.264-8.192-14.336-24.576-8.192-50.176 7.168-32.768-8.192-70.656-26.624-118.784-15.36-39.936-33.792-84.992-43.008-138.24-22.528-123.904 94.208-176.128 95.232-177.152 5.12-2.048 11.264 0 13.312 5.12 2.048 5.12 0 11.264-5.12 13.312-7.168 4.096-13.312 14.336-17.408 28.672-11.264 46.08 2.048 129.024 41.984 184.32 58.368 79.872-3.072 238.592-6.144 244.736-1.024 2.048-2.048 4.096-4.096 5.12-1.024 2.048-12.288 8.192-24.576 8.192zM507.904 54.272c-27.648 23.552-58.368 65.536-47.104 131.072 9.216 51.2 26.624 95.232 41.984 134.144 19.456 49.152 35.84 92.16 27.648 130.048-5.12 24.576 0 28.672 0 29.696 3.072 2.048 10.24 0 15.36-2.048 8.192-23.552 54.272-157.696 7.168-222.208-44.032-60.416-58.368-149.504-45.056-200.704z" fill="#9A2E2C" p-id="12064"></path><path d="M768 235.52s-27.648 75.776-110.592 97.28S498.688 436.224 512 553.984c0 0 165.888-20.48 214.016-117.76C775.168 338.944 768 235.52 768 235.52z" fill="#3AEDA0" p-id="12065"></path><path d="M512 564.224c-2.048 0-4.096-1.024-6.144-2.048-2.048-2.048-3.072-4.096-4.096-7.168-14.336-123.904 66.56-210.944 153.6-232.448 76.8-19.456 103.424-90.112 103.424-90.112 2.048-4.096 6.144-7.168 11.264-6.144 5.12 1.024 8.192 5.12 9.216 9.216 0 4.096 6.144 107.52-43.008 205.824-50.176 100.352-215.04 121.856-222.208 122.88H512z m245.76-288.768c-17.408 24.576-48.128 54.272-97.28 66.56-75.776 19.456-146.432 93.184-138.24 199.68 36.864-6.144 157.696-32.768 196.608-110.592 27.648-57.344 35.84-117.76 38.912-155.648z" fill="#9A2E2C" p-id="12066"></path><path d="M165.888 242.688s297.984-20.48 359.424 228.352c0 0 0 55.296-7.168 69.632-7.168 14.336-165.888 0-214.016-75.776s-61.44-194.56-138.24-222.208z" fill="#3AEDA0" p-id="12067"></path><path d="M494.592 555.008c-53.248 0-159.744-23.552-198.656-86.016-17.408-26.624-29.696-58.368-41.984-89.088-23.552-57.344-45.056-111.616-91.136-128-4.096-2.048-7.168-6.144-6.144-11.264 1.024-5.12 4.096-8.192 9.216-9.216 3.072 0 307.2-18.432 370.688 236.544v2.048c0 9.216 0 58.368-8.192 73.728-3.072 6.144-11.264 9.216-25.6 10.24-2.048 1.024-5.12 1.024-8.192 1.024zM202.752 252.928c32.768 27.648 51.2 74.752 69.632 119.808 12.288 29.696 24.576 60.416 40.96 86.016 41.984 66.56 175.104 81.92 197.632 74.752 3.072-10.24 5.12-40.96 5.12-61.44C467.968 283.648 282.624 256 202.752 252.928z" fill="#9A2E2C" p-id="12068"></path><path d="M636.928 429.056s-97.28 25.6-107.52 81.92" fill="#3AEDA0" p-id="12069"></path><path d="M529.408 521.216h-2.048c-5.12-1.024-9.216-6.144-8.192-12.288 11.264-62.464 110.592-89.088 114.688-90.112 5.12-1.024 11.264 2.048 12.288 7.168 1.024 5.12-2.048 11.264-7.168 12.288-1.024 0-91.136 24.576-100.352 73.728 0 6.144-4.096 9.216-9.216 9.216z" fill="#9A2E2C" p-id="12070"></path><path d="M222.208 740.352s0-152.576 145.408-124.928c0 0 20.48-138.24 145.408-69.632 0 0 97.28-62.464 131.072 34.816 0 0 90.112-14.336 90.112 82.944v138.24S430.08 905.216 360.448 877.568 222.208 740.352 222.208 740.352z" fill="#F9A058" p-id="12071"></path><path d="M394.24 415.744s84.992 28.672 129.024 104.448" fill="#3AEDA0" p-id="12072"></path><path d="M523.264 530.432c-3.072 0-7.168-2.048-9.216-5.12-41.984-70.656-122.88-99.328-123.904-100.352-5.12-2.048-8.192-7.168-6.144-13.312 2.048-5.12 7.168-8.192 13.312-6.144 4.096 1.024 89.088 31.744 134.144 108.544 3.072 5.12 1.024 11.264-4.096 14.336 0 1.024-2.048 2.048-4.096 2.048z" fill="#9A2E2C" p-id="12073"></path><path d="M650.24 768s-180.224 90.112-200.704 90.112S249.856 727.04 124.928 692.224s-82.944 62.464-82.944 62.464 338.944 207.872 353.28 235.52c14.336 27.648 131.072 20.48 221.184-55.296C706.56 858.112 983.04 892.928 983.04 892.928V664.576s-235.52-82.944-463.872 34.816c0 0-138.24 34.816-131.072 82.944 7.168 48.128 14.336 41.984 14.336 41.984s27.648 34.816 69.632 27.648S650.24 768 650.24 768z" fill="#FFD8BB" p-id="12074"></path><path d="M440.32 1014.784c-9.216 0-18.432-1.024-25.6-2.048-15.36-3.072-25.6-9.216-29.696-18.432-12.288-20.48-220.16-152.576-349.184-231.424-2.048-1.024-3.072-3.072-4.096-5.12-1.024-2.048-18.432-43.008 3.072-67.584 16.384-18.432 46.08-20.48 92.16-8.192 81.92 22.528 185.344 86.016 253.952 126.976-2.048-7.168-3.072-15.36-5.12-26.624-8.192-54.272 110.592-87.04 138.24-94.208 229.376-117.76 467.968-35.84 471.04-34.816 4.096 1.024 7.168 5.12 7.168 9.216V890.88c0 3.072-1.024 6.144-3.072 8.192s-5.12 3.072-8.192 2.048c-3.072 0-273.408-32.768-358.4 38.912-58.368 52.224-131.072 74.752-182.272 74.752zM50.176 747.52c82.944 51.2 339.968 209.92 353.28 237.568 1.024 2.048 6.144 5.12 15.36 7.168 37.888 8.192 120.832-8.192 190.464-65.536 82.944-69.632 308.224-51.2 363.52-45.056V671.744c-39.936-12.288-248.832-66.56-448.512 35.84-1.024 0-1.024 1.024-2.048 1.024-53.248 13.312-128 45.056-123.904 71.68 3.072 18.432 5.12 26.624 6.144 31.744l-1.024 1.024c2.048 0 4.096 2.048 6.144 4.096 1.024 1.024 24.576 29.696 59.392 23.552 1.024 0 2.048 0 4.096-1.024 35.84-14.336 107.52-48.128 173.056-80.896 5.12-2.048 11.264-1.024 13.312 4.096 3.072 5.12 1.024 11.264-4.096 13.312-5.12 4.096-131.072 73.728-178.176 83.968-13.312 5.12-22.528 8.192-26.624 8.192-10.24 0-27.648-10.24-78.848-40.96-67.584-40.96-171.008-103.424-248.832-124.928-35.84-10.24-61.44-9.216-70.656 2.048-11.264 10.24-6.144 32.768-2.048 43.008z m344.064 68.608z m0 0z" fill="#9A2E2C" p-id="12075"></path></svg>