<?xml version="1.0" standalone="no"?><!DOCTYPE svg PUBLIC "-//W3C//DTD SVG 1.1//EN" "http://www.w3.org/Graphics/SVG/1.1/DTD/svg11.dtd"><svg t="1663479970643" class="icon" viewBox="0 0 1024 1024" version="1.1" xmlns="http://www.w3.org/2000/svg" p-id="10527" xmlns:xlink="http://www.w3.org/1999/xlink" width="200" height="200"><path d="M949.9 438.7c-9.6 9.6-25.4 9.6-35.1 0L646.1 170c-9.6-9.6-9.6-25.4 0-35.1L713 68c9.6-9.6 25.4-9.6 35.1 0l268.7 268.7c9.6 9.6 9.6 25.4 0 35.1l-66.9 66.9z" fill="#54A8B9" p-id="10528"></path><path d="M835.9 627L591.5 383.2l-64.7 22.9-18.4 52.9c-7.7 22.2-23.6 40.1-44.7 50.3-21.1 10.2-44.9 11.6-67.1 3.9-12.6-4.4-23.8-11.4-33.3-20.8-23.7-23.7-31.9-59.4-20.9-91l28.1-80.9-198.4 198.2c-8 8-8 21.2 0 29.2l19.1 19.1 36.2-36.2c24.1-24.2 63.4-24.2 87.5 0 12 12 18 27.8 18.1 43.5 15.8 0.1 31.6 6.1 43.6 18.1 12 12 18 27.7 18.1 43.5 15.8 0 31.5 6.1 43.5 18 12 12 18 27.8 18.1 43.5 15.8 0.1 31.5 6.1 43.6 18.1 24.1 24.1 24.1 63.3-0.1 87.5l-36.2 36.2 80 80.1c16.1 16.1 42.1 16.1 58.2 0s16.1-42.1 0-58.2l-63.9-63.9c-5.5-5.4-5.5-14.3 0-19.8s14.4-5.5 19.9 0l63.9 63.9c16 16.1 42.1 16.1 58.2-0.1 16-16 16-42.1 0-58.1L616 719.2c-5.5-5.5-5.5-14.4 0-19.9 5.5-5.5 14.4-5.5 19.9 0l64.1 64c16.1 16 42 15.9 58.1-0.1s16.1-42 0.1-58.1l-64-63.9c-5.5-5.5-5.5-14.4 0-19.9 5.5-5.5 14.4-5.5 19.9 0l64 64c16.1 16 42.1 15.9 58.1-0.2 15.8-16.1 15.8-42-0.3-58.1z" fill="#626262" p-id="10529"></path><path d="M407.9 193.3c9.6 9.6 9.6 25.4 0 35.1L114.6 521.8c-9.6 9.6-25.4 9.6-35.1 0L7.2 449.5c-9.6-9.7-9.6-25.5 0-35.1L300.6 121c9.6-9.6 25.4-9.6 35.1 0l72.2 72.3z" fill="#F79633" p-id="10530"></path><path d="M820.6 387.5L662.1 229c-19.5-19.5-46.8-23.3-73.4-11.1-26.6 12.2-146 66.9-146 66.9-16.3 5.7-29.1 18.6-34.8 34.9l-32.2 92.9c-7.4 21.2-1.4 43.9 13.5 58.8 5.9 5.9 13.2 10.6 21.6 13.5 29.7 10.3 62-5.3 72.4-35l23.2-67 94.6-33.6 173.1 173.1 46.4-46.4c24.5-24.4 24.5-64.2 0.1-88.5zM294.1 551.6c-12.7-12.7-33.3-12.7-46 0l-50.8 50.8c-12.7 12.7-12.7 33.2 0 46 12.7 12.6 33.2 12.7 45.9 0l50.8-50.9c12.8-12.6 12.8-33.3 0.1-45.9z m61.7 61.6c-12.7-12.7-33.3-12.7-46 0L259 664.1c-12.7 12.7-12.7 33.2 0 46 12.7 12.7 33.2 12.6 45.9 0l50.8-50.9c12.7-12.8 12.7-33.3 0.1-46zM433 736.4l-50.8 50.9c-12.7 12.7-12.7 33.3 0 46 12.7 12.7 33.2 12.7 45.9 0l50.8-50.8c12.7-12.7 12.7-33.2 0.1-45.9-12.7-12.9-33.3-12.9-46-0.2z m-15.7-61.6c-12.7-12.7-33.3-12.7-45.9 0l-50.8 50.9c-12.7 12.7-12.7 33.3 0 45.9 12.7 12.7 33.3 12.7 46 0l50.8-50.8c12.6-12.7 12.6-33.3-0.1-46z" fill="#626262" p-id="10531"></path></svg>