<?xml version="1.0" standalone="no"?><!DOCTYPE svg PUBLIC "-//W3C//DTD SVG 1.1//EN" "http://www.w3.org/Graphics/SVG/1.1/DTD/svg11.dtd"><svg t="1663298493114" class="icon" viewBox="0 0 1024 1024" version="1.1" xmlns="http://www.w3.org/2000/svg" p-id="17123" width="200" height="200" xmlns:xlink="http://www.w3.org/1999/xlink"><path d="M307.2 716.8h409.6l102.4 102.4H204.8l102.4-102.4z m-204.8 204.8h819.2l102.4 102.4H0l102.4-102.4zM816.8448 301.2608c13.1072-10.6496-2.6112-30.0032-14.848-21.0944C708.7616 347.648 667.136 455.4752 635.392 502.272c-4.9664 7.3728-15.0528 7.5264-20.6336 0.512-28.3136-34.7136-84.8896-127.2832 15.872-223.9488 85.504-81.92 197.632-118.9888 256.6144-170.9568 14.4384-12.6976 36.608-3.072 39.936 17.152 14.4896 87.3472 3.328 161.8944-18.0736 241.3568-43.2128 159.8464-120.9344 203.4176-215.4496 189.184-2.7648-0.512-5.632-0.9728-8.8064-1.7408-8.96-2.2528-13.1584-13.568-8.0896-21.6064-0.1024 0 31.744-98.304 140.1344-230.912z" p-id="17124" fill="#1afa29"></path><path d="M557.2096 284.2624c-76.1856 97.9456-20.7872 187.5968 8.2944 223.1808a14.848 14.848 0 0 0 11.776 5.7344c-9.8816 18.432-20.8384 33.4848-29.7472 44.4416-7.68 9.5744-21.504 9.3696-28.3648-0.768-43.6736-64.3072-100.864-212.48-229.2224-305.3568-16.7424-12.288-38.4 14.336-20.3776 29.0304C418.6624 462.848 462.4384 598.016 462.336 598.016c6.9632 11.0592 1.1776 26.6752-11.1104 29.7472-4.4032 1.024-8.3456 1.6896-12.1344 2.3552-129.9968 19.6096-236.8512-40.2432-296.2432-260.096-29.44-109.2608-44.8-211.7632-24.832-331.8784 4.5568-27.7504 35.072-40.96 54.8864-23.552 81.0496 71.4752 235.2128 122.4704 352.768 235.0592 12.1344 11.6224 22.5792 23.1424 31.5904 34.6112z" p-id="17125" fill="#1afa29"></path></svg>