<?xml version="1.0" standalone="no"?><!DOCTYPE svg PUBLIC "-//W3C//DTD SVG 1.1//EN" "http://www.w3.org/Graphics/SVG/1.1/DTD/svg11.dtd"><svg t="1663297235106" class="icon" viewBox="0 0 1024 1024" version="1.1" xmlns="http://www.w3.org/2000/svg" p-id="1666" xmlns:xlink="http://www.w3.org/1999/xlink" width="200" height="200"><path d="M520.192 846.848c-3.072 0-5.12-1.024-7.168-3.072-3.072-3.072-4.096-8.192-2.048-11.264 1.024-3.072 3.072-22.528-8.192-109.568-8.192-63.488 2.048-76.8 20.48-96.256 11.264-11.264 25.6-25.6 36.864-66.56 25.6-90.112-68.608-122.88-72.704-123.904-5.12-2.048-8.192-7.168-6.144-13.312 2.048-5.12 7.168-8.192 13.312-6.144 1.024 0 116.736 39.936 86.016 149.504-13.312 46.08-29.696 63.488-41.984 75.776-14.336 14.336-22.528 22.528-15.36 78.848 15.36 112.64 7.168 120.832 4.096 123.904-2.048 1.024-5.12 2.048-7.168 2.048z m-7.168-17.408z m0 0z m0 0z" fill="#9A2E2C" p-id="1667"></path><path d="M764.928 584.704s-50.176 50.176-137.216 64.512c-86.016 14.336-112.64 33.792-110.592 114.688 2.048 79.872 30.72 87.04 124.928 36.864s122.88-216.064 122.88-216.064z" fill="#3AEDA0" p-id="1668"></path><path d="M557.056 842.752c-9.216 0-16.384-2.048-22.528-5.12-17.408-10.24-25.6-31.744-26.624-73.728-2.048-90.112 32.768-110.592 118.784-124.928 81.92-13.312 131.072-61.44 131.072-62.464 3.072-3.072 8.192-4.096 12.288-2.048 4.096 2.048 6.144 6.144 5.12 11.264-1.024 7.168-30.72 171.008-128 223.232-41.984 23.552-70.656 33.792-90.112 33.792z m191.488-231.424c-23.552 16.384-64.512 38.912-118.784 48.128-84.992 14.336-103.424 32.768-101.376 103.424 1.024 31.744 6.144 50.176 16.384 56.32 13.312 8.192 41.984-1.024 93.184-27.648 64.512-34.816 97.28-132.096 110.592-180.224z" fill="#9A2E2C" p-id="1669"></path><path d="M275.456 577.536s50.176 64.512 137.216 78.848c86.016 14.336 100.352 64.512 100.352 122.88s-7.168 93.184-50.176 71.68c-44.032-21.504-137.216-43.008-187.392-273.408z" fill="#37EFC3" p-id="1670"></path><path d="M484.352 867.328c-8.192 0-16.384-2.048-26.624-7.168l-12.288-6.144c-46.08-21.504-133.12-60.416-180.224-274.432-1.024-5.12 1.024-9.216 6.144-11.264 4.096-2.048 9.216-1.024 12.288 3.072 0 1.024 49.152 61.44 130.048 75.776 96.256 16.384 109.568 75.776 109.568 132.096 0 41.984-4.096 72.704-22.528 83.968-5.12 3.072-10.24 4.096-16.384 4.096zM293.888 610.304c45.056 173.056 116.736 205.824 159.744 225.28 5.12 2.048 9.216 4.096 13.312 6.144 7.168 4.096 17.408 7.168 22.528 4.096 12.288-8.192 12.288-50.176 12.288-66.56 0-58.368-15.36-99.328-92.16-112.64-52.224-9.216-92.16-34.816-115.712-56.32z" fill="#9A2E2C" p-id="1671"></path><path d="M217.088 1009.664h598.016s43.008-194.56-180.224-130.048c0 0-130.048-158.72-251.904 7.168 0 0-208.896-78.848-165.888 122.88z" fill="#F9A058" p-id="1672"></path><path d="M447.488 22.528h130.048l158.72 173.056H296.96zM22.528 976.896c-1.024 0-3.072 0-4.096-1.024-5.12-2.048-8.192-8.192-5.12-13.312l20.48-49.152c2.048-5.12 8.192-8.192 13.312-5.12 5.12 2.048 8.192 8.192 5.12 13.312l-20.48 49.152c-1.024 3.072-5.12 6.144-9.216 6.144zM59.392 886.784c-1.024 0-3.072 0-4.096-1.024-5.12-2.048-8.192-8.192-5.12-13.312l29.696-72.704c2.048-5.12 8.192-8.192 13.312-5.12 5.12 2.048 8.192 8.192 5.12 13.312L68.608 880.64c-1.024 4.096-5.12 6.144-9.216 6.144zM107.52 768c-1.024 0-3.072 0-4.096-1.024-5.12-2.048-8.192-8.192-5.12-13.312l29.696-72.704c2.048-5.12 8.192-8.192 13.312-5.12 5.12 2.048 8.192 8.192 5.12 13.312l-29.696 72.704c-1.024 4.096-5.12 6.144-9.216 6.144zM155.648 651.264c-1.024 0-3.072 0-4.096-1.024-5.12-2.048-8.192-8.192-5.12-13.312l29.696-72.704c2.048-5.12 8.192-8.192 13.312-5.12 5.12 2.048 8.192 8.192 5.12 13.312L164.864 645.12c-1.024 4.096-5.12 6.144-9.216 6.144zM207.872 523.264c-1.024 0-3.072 0-4.096-1.024-5.12-2.048-8.192-8.192-5.12-13.312l25.6-62.464c2.048-5.12 8.192-8.192 13.312-5.12 5.12 2.048 8.192 8.192 5.12 13.312l-25.6 62.464c-1.024 3.072-5.12 6.144-9.216 6.144zM252.928 413.696c-1.024 0-3.072 0-4.096-1.024-5.12-2.048-8.192-8.192-5.12-13.312l33.792-81.92c2.048-5.12 8.192-8.192 13.312-5.12 5.12 2.048 8.192 8.192 5.12 13.312l-33.792 81.92c-1.024 4.096-5.12 6.144-9.216 6.144zM303.104 287.744c-1.024 0-2.048 0-3.072-1.024-5.12-2.048-8.192-7.168-6.144-13.312l15.36-46.08c2.048-5.12 7.168-8.192 13.312-6.144 5.12 2.048 8.192 7.168 6.144 13.312l-15.36 46.08c-2.048 4.096-6.144 7.168-10.24 7.168z" fill="#CFE8FF" p-id="1673"></path><path d="M166.912 969.728H163.84c-5.12-2.048-8.192-7.168-6.144-13.312l19.456-60.416c2.048-5.12 7.168-8.192 13.312-6.144 5.12 2.048 8.192 7.168 6.144 13.312L177.152 962.56c-2.048 4.096-6.144 7.168-10.24 7.168zM199.68 870.4h-3.072c-5.12-2.048-8.192-7.168-6.144-13.312l25.6-77.824c2.048-5.12 7.168-8.192 13.312-6.144 5.12 2.048 8.192 7.168 6.144 13.312l-25.6 77.824c-2.048 3.072-6.144 6.144-10.24 6.144zM235.52 759.808h-3.072c-5.12-2.048-8.192-7.168-6.144-13.312l23.552-70.656c2.048-5.12 7.168-8.192 13.312-6.144 5.12 2.048 8.192 7.168 6.144 13.312L245.76 753.664c-2.048 3.072-6.144 6.144-10.24 6.144zM300.032 561.152H296.96c-5.12-2.048-8.192-7.168-6.144-13.312l24.576-74.752c2.048-5.12 7.168-8.192 13.312-6.144 5.12 2.048 8.192 7.168 6.144 13.312l-24.576 74.752c-1.024 3.072-5.12 6.144-10.24 6.144zM336.896 447.488h-3.072c-5.12-2.048-8.192-7.168-6.144-13.312l28.672-86.016c2.048-5.12 7.168-8.192 13.312-6.144 5.12 2.048 8.192 7.168 6.144 13.312l-28.672 86.016c-1.024 4.096-5.12 6.144-10.24 6.144zM379.904 318.464h-3.072c-5.12-2.048-8.192-7.168-6.144-13.312l24.576-76.8c2.048-5.12 7.168-8.192 13.312-6.144 5.12 2.048 8.192 7.168 6.144 13.312L389.12 311.296c-1.024 4.096-5.12 7.168-9.216 7.168z" fill="#CFE8FF" p-id="1674"></path><path d="M418.816 587.776h-2.048c-5.12-1.024-9.216-6.144-8.192-12.288l12.288-72.704c1.024-5.12 6.144-9.216 12.288-8.192 5.12 1.024 9.216 6.144 8.192 12.288l-12.288 72.704c-1.024 4.096-5.12 8.192-10.24 8.192zM440.32 459.776h-2.048c-5.12-1.024-9.216-6.144-8.192-12.288l14.336-82.944c1.024-5.12 6.144-9.216 12.288-8.192 5.12 1.024 9.216 6.144 8.192 12.288L450.56 451.584c-1.024 5.12-5.12 8.192-10.24 8.192zM462.848 325.632H460.8c-5.12-1.024-9.216-6.144-8.192-12.288l14.336-83.968c1.024-5.12 6.144-9.216 12.288-8.192 5.12 1.024 9.216 6.144 8.192 12.288L473.088 317.44c-1.024 4.096-5.12 8.192-10.24 8.192z" fill="#CFE8FF" p-id="1675"></path><path d="M620.544 602.112c-5.12 0-9.216-3.072-10.24-8.192l-15.36-83.968c-1.024-5.12 3.072-11.264 8.192-12.288 5.12-1.024 11.264 3.072 12.288 8.192l15.36 83.968c1.024 5.12-3.072 11.264-8.192 12.288h-2.048zM595.968 462.848c-5.12 0-9.216-3.072-10.24-8.192L570.368 368.64c-1.024-5.12 3.072-11.264 8.192-12.288 6.144-1.024 11.264 3.072 12.288 8.192l15.36 86.016c1.024 5.12-3.072 11.264-8.192 12.288h-2.048zM571.392 325.632c-5.12 0-9.216-3.072-10.24-8.192l-15.36-83.968c-1.024-5.12 3.072-11.264 8.192-12.288 5.12-1.024 11.264 3.072 12.288 8.192l15.36 83.968c1.024 5.12-3.072 11.264-8.192 12.288h-2.048z" fill="#CFE8FF" p-id="1676"></path><path d="M879.616 969.728c-4.096 0-8.192-3.072-9.216-7.168l-20.48-61.44c-2.048-5.12 1.024-11.264 6.144-13.312 5.12-2.048 11.264 1.024 13.312 6.144l20.48 61.44c2.048 5.12-1.024 11.264-6.144 13.312-1.024 0-3.072 1.024-4.096 1.024zM848.896 876.544c-4.096 0-8.192-3.072-9.216-7.168l-25.6-74.752c-2.048-5.12 1.024-11.264 6.144-13.312 5.12-2.048 11.264 1.024 13.312 6.144l25.6 74.752c2.048 5.12-1.024 11.264-6.144 13.312-2.048 1.024-3.072 1.024-4.096 1.024zM809.984 761.856c-4.096 0-8.192-3.072-9.216-7.168l-24.576-74.752c-2.048-5.12 1.024-11.264 6.144-13.312 5.12-2.048 11.264 1.024 13.312 6.144l24.576 74.752c2.048 5.12-1.024 11.264-6.144 13.312-2.048 1.024-3.072 1.024-4.096 1.024zM743.424 562.176c-4.096 0-8.192-3.072-9.216-7.168l-25.6-74.752c-2.048-5.12 1.024-11.264 6.144-13.312 5.12-2.048 11.264 1.024 13.312 6.144l25.6 74.752c2.048 5.12-1.024 11.264-6.144 13.312-2.048 1.024-3.072 1.024-4.096 1.024zM705.536 449.536c-4.096 0-8.192-3.072-9.216-7.168L667.648 358.4c-2.048-5.12 1.024-11.264 6.144-13.312 5.12-2.048 11.264 1.024 13.312 6.144l28.672 83.968c2.048 5.12-1.024 11.264-6.144 13.312-2.048 1.024-3.072 1.024-4.096 1.024zM660.48 318.464c-4.096 0-8.192-3.072-9.216-7.168l-25.6-76.8c-2.048-5.12 1.024-11.264 6.144-13.312 5.12-2.048 11.264 1.024 13.312 6.144l25.6 76.8c2.048 5.12-1.024 11.264-6.144 13.312-1.024 1.024-3.072 1.024-4.096 1.024z" fill="#CFE8FF" p-id="1677"></path><path d="M1004.544 953.344c-4.096 0-8.192-2.048-9.216-6.144l-24.576-59.392c-2.048-5.12 0-11.264 5.12-13.312 5.12-2.048 11.264 0 13.312 5.12l24.576 59.392c2.048 5.12 0 11.264-5.12 13.312-1.024 1.024-3.072 1.024-4.096 1.024zM967.68 863.232c-4.096 0-8.192-2.048-9.216-6.144l-29.696-72.704c-2.048-5.12 0-11.264 5.12-13.312 5.12-2.048 11.264 0 13.312 5.12l29.696 72.704c2.048 5.12 0 11.264-5.12 13.312-2.048 1.024-3.072 1.024-4.096 1.024zM921.6 751.616c-4.096 0-8.192-2.048-9.216-6.144l-29.696-72.704c-2.048-5.12 0-11.264 5.12-13.312 5.12-2.048 11.264 0 13.312 5.12l29.696 72.704c2.048 5.12 0 11.264-5.12 13.312-2.048 0-3.072 1.024-4.096 1.024zM840.704 556.032c-4.096 0-8.192-2.048-9.216-6.144l-29.696-72.704c-2.048-5.12 0-11.264 5.12-13.312 5.12-2.048 11.264 0 13.312 5.12l29.696 72.704c2.048 5.12 0 11.264-5.12 13.312-1.024 1.024-2.048 1.024-4.096 1.024zM795.648 446.464c-4.096 0-8.192-2.048-9.216-6.144l-33.792-81.92c-2.048-5.12 0-11.264 5.12-13.312 5.12-2.048 11.264 0 13.312 5.12l33.792 81.92c2.048 5.12 0 11.264-5.12 13.312-1.024 1.024-2.048 1.024-4.096 1.024zM743.424 318.464c-4.096 0-8.192-2.048-9.216-6.144l-30.72-74.752c-2.048-5.12 0-11.264 5.12-13.312 5.12-2.048 11.264 0 13.312 5.12l30.72 74.752c2.048 5.12 0 11.264-5.12 13.312-2.048 0-3.072 1.024-4.096 1.024z" fill="#CFE8FF" p-id="1678"></path></svg>