<?xml version="1.0" standalone="no"?><!DOCTYPE svg PUBLIC "-//W3C//DTD SVG 1.1//EN" "http://www.w3.org/Graphics/SVG/1.1/DTD/svg11.dtd"><svg t="1663297428758" class="icon" viewBox="0 0 1024 1024" version="1.1" xmlns="http://www.w3.org/2000/svg" p-id="2064" xmlns:xlink="http://www.w3.org/1999/xlink" width="200" height="200"><path d="M544.1 270.2h-62.5c-0.6 0-1.1-0.5-1.1-1.1V103.6c0-0.6 0.5-1.1 1.1-1.1h62.5c0.6 0 1.1 0.5 1.1 1.1v165.5c-0.1 0.6-0.5 1.1-1.1 1.1zM730 358.4l-54.1-31.2c-0.5-0.3-0.7-1-0.4-1.5l82.8-143.4c0.3-0.5 1-0.7 1.5-0.4l54.1 31.2c0.5 0.3 0.7 1 0.4 1.5L731.5 358c-0.3 0.6-1 0.7-1.5 0.4zM801.9 543.1l-17-60.1c-0.2-0.6 0.2-1.2 0.7-1.3l159.3-45.1c0.6-0.2 1.2 0.2 1.3 0.7l17 60.1c0.2 0.6-0.2 1.2-0.7 1.3l-159.3 45.1c-0.5 0.2-1.1-0.1-1.3-0.7zM223.7 543.1l17-60.1c0.2-0.6-0.2-1.2-0.7-1.3L80.7 436.6c-0.6-0.2-1.2 0.2-1.3 0.7l-17 60.1c-0.2 0.6 0.2 1.2 0.7 1.3l159.3 45.1c0.6 0.2 1.2-0.1 1.3-0.7zM292.1 358.4l54.1-31.2c0.5-0.3 0.7-1 0.4-1.5l-82.8-143.4c-0.3-0.5-1-0.7-1.5-0.4l-54.1 31.2c-0.5 0.3-0.7 1-0.4 1.5L290.6 358c0.3 0.6 0.9 0.7 1.5 0.4zM725.4 879H300.3c-0.7 0-1.3-0.6-1.3-1.3v-73.4c0-0.7 0.6-1.3 1.3-1.3h425.1c0.7 0 1.3 0.6 1.3 1.3v73.4c0 0.7-0.6 1.3-1.3 1.3z" fill="#A25FA2" p-id="2065"></path><path d="M512.8 762.6c-120.9 0-219.2-98.4-219.2-219.2S391.9 324 512.8 324 732 422.4 732 543.3s-98.3 219.3-219.2 219.3z m0-410.9c-105.6 0-191.6 85.9-191.6 191.6s85.9 191.6 191.6 191.6S704.4 649 704.4 543.3s-85.9-191.6-191.6-191.6z" fill="#E19B2D" p-id="2066"></path></svg>